<svg xmlns="http://www.w3.org/2000/svg" xmlns:xlink="http://www.w3.org/1999/xlink" fill="none" version="1.1" width="512" height="512" viewBox="0 0 512 512"><g><g><g><rect x="0" y="0" width="512" height="512" rx="100" fill="#371B00" fill-opacity="1"/></g></g><g><path d="M223.48000000000002,370.69Q187.57,370.69,159.6925,357.46000000000004Q131.815,344.23,115.9075,319.03Q100,293.83000000000004,100,259.18Q100,222.64,115.435,196.3375Q130.87,170.035,158.59,156.0175Q186.31,142,221.905,142Q239.545,142,257.5,145.465Q275.45500000000004,148.93001,287.11,154.285L287.11,193.345Q255.295,181.69,227.89,181.69Q195.13,181.69,174.8125,200.905Q154.495,220.12,154.495,259.18Q154.495,279.97,164.575,295.878Q174.655,311.78499999999997,191.035,320.605Q207.41500000000002,329.425,226.315,330.685L233.245,331Q247.735,331,261.90999999999997,326.905Q276.08500000000004,322.81,287.11,315.88L287.11,359.35Q273.565,365.65,258.28700000000003,368.16999999999996Q243.01,370.69,223.48000000000002,370.69ZM331.84000000000003,196.495L331.84000000000003,147.985L379.09,147.985L379.09,196.495L411.85,196.495L411.85,234.925L379.09,234.925L379.09,308.005Q379.09,317.14,380.507,321.865Q381.925,326.59000000000003,385.705,328.323Q389.485,330.055,396.73,330.055Q401.455,330.055,404.762,329.74Q408.07,329.425,410.59,328.79499999999996L410.59,367.53999999999996Q397.36,369.115,386.02,369.115Q364.285,369.115,353.575,364.70500000000004Q342.865,360.29499999999996,337.352,349.427Q331.84000000000003,338.56,331.84000000000003,318.4L331.84000000000003,234.925L307.27,234.925L307.27,196.495L331.84000000000003,196.495Z" fill="#FF8F1F" fill-opacity="1"/></g></g></svg>